<?xml version="1.0" encoding="UTF-8"?>
<!DOCTYPE svg PUBLIC "-//W3C//DTD SVG 1.1//EN" "http://www.w3.org/Graphics/SVG/1.1/DTD/svg11.dtd">
<!-- Creator: CorelDRAW 2020 (64 Bit) -->
<svg xmlns="http://www.w3.org/2000/svg" xml:space="preserve" width="60.6753mm" height="60.2525mm" version="1.1" style="shape-rendering:geometricPrecision; text-rendering:geometricPrecision; image-rendering:optimizeQuality; fill-rule:evenodd; clip-rule:evenodd"
viewBox="0 0 6060.09 6017.86"
 xmlns:xlink="http://www.w3.org/1999/xlink"
 xmlns:xodm="http://www.corel.com/coreldraw/odm/2003">
 <defs>
  <style type="text/css">
   <![CDATA[
    .fil6 {fill:#24211C}
    .fil1 {fill:#251C1C}
    .fil7 {fill:#8A302D}
    .fil4 {fill:#BA332E}
    .fil2 {fill:#BB342E}
    .fil5 {fill:#BB9936}
    .fil0 {fill:#BE9736}
    .fil8 {fill:#EAB8B5}
    .fil3 {fill:#FDFDFD}
   ]]>
  </style>
 </defs>
 <g id="Camada_x0020_1">
  <metadata id="CorelCorpID_0Corel-Layer"/>
  <path class="fil0" d="M3061.12 3311.85c45.47,57.98 177.88,16.9 239.44,2.02 42.56,-10.29 71.72,-23.28 104.37,-40.68 90.85,-48.43 76.74,-87.36 137.94,-27.35 23.66,23.2 24.05,17.77 31.74,49.1 -6.72,47.75 -242.69,166.8 -427.56,166.59 -149.17,-0.17 -123.56,-42.01 -164.97,-33.7 -44.38,8.89 -63.68,80.27 -315.16,10.92 -79.05,-21.79 -217.69,-78.91 -258.56,-143.8 -4.69,-25.56 45.62,-67.39 79.11,-80.58 83.62,42.35 44.66,57.33 200.27,100.84 77.97,21.8 177.2,48.92 243.26,-6.93l1.87 -207.82c-57.56,-28.17 -75.22,-56.73 -121.5,-95.15 -35.99,-29.86 -98.45,-62.94 -93.2,-124.17 6.07,-70.81 79.62,-66.93 149.81,-66.67 73.26,0.28 146.62,0.32 219.89,0.07 67.29,-0.22 153.46,-9.02 169.25,50.39 19.01,71.5 -43.63,105.63 -80.79,137.92 -18.29,15.9 -114.1,100.87 -116.01,103.87 -20.92,33.01 -17.12,170.24 0.79,205.15zm553.43 -1064.94c218.51,-76.23 306.35,264.66 112.66,326.53 -229.7,73.36 -329.85,-250.76 -112.66,-326.53zm-1357.83 4.54c96.49,-32.85 196.76,20.17 223.52,103.1 32.81,101.74 -28.83,192.3 -104.92,220.01 -217.71,79.26 -330.76,-250.9 -118.59,-323.11zm780.41 1731.14l237.62 -221.76c171.45,-142.14 364.01,-252.29 580.2,-342.23 52.81,-21.97 108.37,-40.89 162.95,-64.95 228.61,-100.76 183.85,16.48 254.72,-209.3 110.64,-352.53 79.86,-885.53 135.23,-1015.81 18.79,-44.22 97.33,-63.91 137.74,-90.74 48.45,-32.16 81.6,-63.91 129.39,-106.74 163.54,-146.58 231.33,-490.95 40.54,-653.19 -220.58,-187.57 -464.11,-85.16 -684.85,25.45 -144.14,72.21 -40.23,58.25 -169.48,286.58 -63.93,112.93 -113.63,167.65 -212.83,252.68 -433.99,371.97 -1245.29,310.61 -1551.67,-305.67 -97.17,-195.44 1.69,-163.4 -202.03,-262.71 -98.86,-48.19 -223.24,-98.43 -354.37,-99.97 -405.04,-4.75 -533.74,492.92 -191.27,798.52 42.81,38.18 77.92,62.44 134.5,94.02 71.01,39.64 88.06,25.62 105.84,122.2 24.62,133.8 20.58,289.74 33.57,433.8 12.25,136.01 31.8,269.04 55.04,399.88 53.22,299.64 95.49,242.78 194.62,271.47 385.71,111.64 827.19,330.34 1101.64,630.49 29.89,32.68 33.89,44.79 62.9,57.99z"/>
  <path class="fil1" d="M5187.93 4597.21c-13.47,-73.98 -4.17,-287.32 19.08,-343.18 28.28,-67.94 118.59,-149 198.81,-158.96 84.23,-10.46 281.2,-11.67 342.57,15.77 87.91,39.31 149.21,107.23 161.85,209.18 10.49,84.53 9.51,277.7 -16.68,342.86 -33,82.06 -112.5,144.65 -202.87,158.68 -84.6,13.12 -270.98,10.84 -341.97,-16.75 -82.64,-32.1 -144.23,-116.67 -160.78,-207.6zm-4317.68 16.92c-16.87,89.65 -85.7,165.49 -162.54,197.28 -47.24,19.55 -292.74,19.9 -354.94,7.24 -84.52,-17.21 -160.63,-92.81 -190.24,-170.38 -15.35,-40.21 -41.04,-315.36 12.53,-410.94 30.36,-54.15 86.78,-102.67 150.41,-128.18 56.37,-22.6 281.62,-26.28 347.51,-11.49 82.54,18.52 156.21,86.75 188.23,171.55 25.49,67.51 23.87,266.05 9.04,344.92zm2166.88 -631.52c-29.01,-13.2 -33.01,-25.31 -62.9,-57.99 -274.44,-300.14 -715.93,-518.84 -1101.64,-630.49 -99.13,-28.68 -141.4,28.18 -194.62,-271.47 -23.24,-130.84 -42.79,-263.87 -55.04,-399.88 -12.98,-144.05 -8.95,-300 -33.57,-433.8 -17.78,-96.58 -34.83,-82.56 -105.84,-122.2 -56.58,-31.58 -91.7,-55.84 -134.5,-94.02 -342.48,-305.59 -213.78,-803.27 191.27,-798.52 131.14,1.54 255.52,51.78 354.37,99.97 203.72,99.31 104.86,67.27 202.03,262.71 306.38,616.28 1117.69,677.65 1551.67,305.67 99.2,-85.03 148.9,-139.75 212.83,-252.68 129.25,-228.33 25.34,-214.37 169.48,-286.58 220.74,-110.6 464.27,-213.02 684.85,-25.45 190.79,162.24 123,506.61 -40.54,653.19 -47.79,42.83 -80.94,74.58 -129.39,106.74 -40.41,26.83 -118.95,46.52 -137.74,90.74 -55.37,130.28 -24.59,663.29 -135.23,1015.81 -70.86,225.78 -26.11,108.55 -254.72,209.3 -54.58,24.06 -110.14,42.98 -162.95,64.95 -216.18,89.94 -408.75,200.09 -580.2,342.23l-237.62 221.76zm-564.47 -2228.82c-82.03,-56.71 -181.16,-159.16 -223.32,-240.57l-44.53 -72.66c-0.72,-1.73 -1.77,-3.98 -2.4,-5.77l-3.62 -52.67c408.1,16.29 901.71,6.19 1328.79,5.94 293.36,-0.18 266.52,-11.82 227.39,82.03 -4.35,10.45 -5.53,16.99 -9.13,24.65 -2.35,5 -7.46,12.8 -12.17,18.8 -1.48,1.88 -6.28,6.99 -7.85,8.92l-33.48 52.04c-73.48,118.81 -174.2,175.98 -289.1,244.22 -50.05,29.72 -17.31,23.67 -86.09,46.03 -67.07,21.81 -139.68,49.82 -212.64,55.65 -119.38,9.55 -251.37,1.54 -362.64,-30.11 -165.08,-46.95 -160.57,-61.36 -269.23,-136.49zm1339.78 -517.2c-77.62,9.95 -1115.52,3.25 -1223.5,3.25l-381.68 1.27c-38.97,-1.51 -38.18,2.38 -42.93,-33.77 -6.59,-50.23 5.31,-102.13 11.03,-145.58 10.37,-78.9 45.88,-153.29 83.61,-219.38 64.05,-112.21 197.61,-232.99 320.71,-296.97 90.61,-47.09 253.96,-98.67 355.69,-100.73 134.34,-2.71 274.58,4.43 396.43,62.02 92.14,43.55 111.9,66.86 186.4,115.63 134.02,87.72 201.4,192.49 263.69,345.65 28.69,70.52 42.06,172.63 30.55,268.61zm-3396.3 4781.29l148.71 0c0,-148.88 -10.32,-982.68 5.13,-1054.85 204.89,-1.94 325.33,-52.64 420.91,-238.06 31.65,-61.4 30.66,-114.58 30.81,-195.39 0.32,-172.48 14.54,-255.03 -59.1,-387.54 -59.96,-107.88 -154.03,-148.93 -256.74,-183.33l-148.97 -8.14 -3.33 -613.31c48.92,-37.32 370.42,-31.19 462.51,-27.12 66.76,2.95 148.01,-8.39 166.45,20.31 50.26,-10.51 219.74,14.55 269.62,24.75 204.67,32.72 475.69,106.98 663.76,183.59 341.58,139.13 605.42,327.2 842.18,593.56 30.38,21.06 47.18,50.9 79.04,74.46l75.15 -73.13c221.09,-227.69 273.52,-299.2 581.85,-468.58 118.7,-65.2 234.23,-123.34 366.09,-165.98 121.01,-39.12 283.45,-101.8 415.14,-117.56 25.8,-16.25 70,-20.68 109.17,-25.35 401.55,-47.86 381.82,-48.38 795.49,-41.51 46.94,0.78 77.47,11.11 124.77,16.32 8.8,75.62 2.24,412.4 3.02,539.18 0.89,144.57 -25.09,37.91 -212.93,109.67 -127.16,48.58 -181.29,142.13 -229.31,253.02 -26.49,61.15 -19.23,151.5 -19.19,229.05 0.08,218.46 29.31,392.98 243.82,477.27 118.83,46.71 117.16,19.83 182.05,29.3 2.69,0.39 4.85,0.8 7.32,1.31 2.34,0.48 4.77,1.36 6.79,1.89 32.41,8.48 21.52,70.87 21.3,124.44 -0.17,45.11 -0.08,90.2 -0.08,135.3l0 786.43 147.22 0c0,-102.02 -10.39,-1014.54 7.71,-1035.38 17.72,-18.58 9.24,-8.89 43.71,-15.1 104.6,-18.86 192.55,-50.24 261.27,-137.18 91.45,-115.72 92.64,-185.85 92.6,-368.29 -0.04,-176.14 -1.38,-262.72 -89.5,-370.79 -68.42,-83.91 -159.25,-136.47 -303.65,-145.11 -20.69,-113.44 18,-701.67 -12.46,-739.77 -43.05,-43.22 -545.79,-42.88 -647.03,-38.91 -108.38,4.25 -212.32,9.96 -311.2,26.74l-286.13 47.38c-0.34,-38.87 35.13,-164.2 44.11,-203.75 16.43,-72.35 15.55,-149.79 31.5,-215.77 15.14,-62.63 36.56,-372.15 38.89,-448.72 3.8,-124.69 -1.03,-151.32 60.11,-185.36 153.3,-85.36 284.43,-215.93 351.8,-386.19 190.19,-480.65 -204.66,-851.19 -608.39,-766.75 -65.65,13.73 -131.62,31.01 -190,53.54 -37.74,14.58 -151.76,69.55 -166.69,70.88 -11.84,-129.7 -30.92,-227.25 -83.93,-337.59 -108.37,-225.6 -327.17,-404.29 -570.26,-479.84 -44.04,-13.69 -121.1,-23.07 -157.1,-40.48 4.81,-32.29 27.06,-53.71 28.83,-101.98 9.42,-255.13 -406.51,-279.76 -390.95,9.46 2.74,50.74 22.91,55.21 22.44,95.64 -105.51,32.58 -181.37,30.22 -312.39,101.91 -271.29,148.47 -479.8,396.14 -494.56,749.93 -33.99,-3.96 -135.49,-55.09 -176.53,-71.13 -55.38,-21.64 -127.83,-43.15 -188.61,-52.41 -626.22,-95.41 -878.74,624.33 -396.56,1053.91 35.52,31.63 95.83,74.94 141.29,103.08 64.1,39.7 52.47,20.11 63.85,175.03 10.92,148.41 15.44,299.09 32.11,448.39 11.24,100.67 78.01,373.76 78.45,407.6 -87.93,-2.06 -184.5,-30.89 -280.86,-37.01 -206.69,-13.12 -708.44,-42.41 -870.6,17.71l0.07 558.49c0,102.74 16.66,175.22 -27.59,185.34 -2.47,0.56 -4.68,0.98 -7.34,1.46 -59.52,10.67 -73.98,-3.69 -160.1,41.86 -191.09,101.06 -221.28,257.91 -221.11,473.21 0.27,341.29 108.46,467.02 416.03,516.25l0.11 1039.7z"/>
  <path class="fil2" d="M2320.31 4667.11c-27.38,249.79 -55.9,188.59 -427.15,172 7.53,73.24 128.47,305.24 102.3,358.47 -20.2,22.28 -60.64,49.69 -91.43,59.78l-76.64 56.19c17.66,40.98 421.83,305.22 487.33,360.8 33.8,28.66 65.39,44.1 97.24,72.49 86.75,77.34 -8.92,166.69 -21.58,267.07 107.2,-6.01 232.01,-34.12 342.44,-45.52 269.7,-27.87 258.72,-81.15 258.38,49.48l90.93 0 1.47 -79.05c51.48,-8.47 99.23,9 141.47,16.16l456.93 59.02c-13.85,-77.39 -98.79,-201.06 -27.77,-266.88 16.11,-14.93 75.73,-52.8 99.65,-69.78l393.35 -282.85c18.1,-13.07 30.58,-25.04 47.2,-37.14 28.25,-20.56 29.98,-12.01 45.5,-41.33 -66.69,-73.16 -189.08,-72.47 -155.47,-197.33 22.49,-83.55 87.79,-189.29 91.82,-281.63 -103.44,4.77 -216.02,17.21 -319.61,14.44 -134.76,-3.6 -47.49,-164.82 -126.14,-209.22 -63.5,41.72 -259.21,352.58 -305.86,362.37 -39.66,8.32 -50.97,-9.49 -52.14,-43.58 -0.33,-9.68 3.83,-39.23 5.29,-50.37 25.41,-191.98 78.56,-364.05 87.29,-580.8 -80.87,14.54 -115.85,110.55 -199.68,104.29 -14.75,-6.39 -151.99,-248.45 -153.17,-300.51l-75.15 73.13c-31.86,-23.56 -48.66,-53.39 -79.04,-74.46 1.36,29.06 -95.28,217.59 -118.15,260.08 -62.13,115.42 -153.36,-47.9 -236.48,-67.87 5.53,135.31 114.66,651.89 86.55,678.45 -54.35,51.35 -159.01,-129.48 -185.4,-161.15 -28.51,-34.22 -53.55,-64.99 -78.36,-98.75 -37.78,-51.43 -57.77,-85.49 -97.98,-101.59l-7.95 25.61z"/>
  <path class="fil3" d="M4475.35 3381.54c-131.69,15.76 -294.13,78.43 -415.14,117.56 -131.86,42.64 -247.39,100.78 -366.09,165.98 -308.32,169.38 -360.76,240.89 -581.85,468.58 1.18,52.06 138.42,294.12 153.17,300.51 83.84,6.26 118.81,-89.75 199.68,-104.29 -8.73,216.74 -61.88,388.81 -87.29,580.8 -1.47,11.14 -5.62,40.69 -5.29,50.37 1.17,34.09 12.47,51.9 52.14,43.58 46.65,-9.79 242.36,-320.65 305.86,-362.37 78.64,44.41 -8.63,205.63 126.14,209.22 103.58,2.77 216.16,-9.67 319.61,-14.44 -4.03,92.35 -69.32,198.09 -91.82,281.63 -33.61,124.86 88.78,124.17 155.47,197.33 -15.52,29.32 -17.26,20.76 -45.5,41.33 -16.62,12.11 -29.1,24.07 -47.2,37.14l-393.35 282.85c-23.92,16.99 -83.54,54.85 -99.65,69.78 -71.02,65.82 13.91,189.49 27.77,266.88l-456.93 -59.02c-42.24,-7.16 -89.99,-24.63 -141.47,-16.16l-1.47 79.05 1535.75 0 -0.99 -2656.54 -141.56 20.22z"/>
  <path class="fil3" d="M1450.26 6017.86l1540.96 0c0.34,-130.63 11.32,-77.35 -258.38,-49.48 -110.43,11.41 -235.24,39.51 -342.44,45.52 12.66,-100.39 108.34,-189.74 21.58,-267.07 -31.85,-28.4 -63.44,-43.83 -97.24,-72.49 -65.5,-55.58 -469.67,-319.82 -487.33,-360.8l76.64 -56.19c24.54,-41.76 32.39,-25.88 58.64,-51.9 43.32,-42.96 -3.98,-122.14 -33.37,-203.58 -19.08,-52.84 -55.01,-130.82 -54.03,-170.74 51.55,-16.33 217.84,8.43 316.46,8.34 47.69,-0.05 67.13,4.14 78.63,-37.13 7.7,6.34 22.01,9.24 5.74,14.73l18.94 -111.91c12.35,-41 11.88,-30.89 25.26,-38.05l7.95 -25.61c40.21,16.1 60.2,50.16 97.98,101.59 24.81,33.76 49.85,64.53 78.36,98.75 26.39,31.67 131.05,212.5 185.4,161.15 28.11,-26.56 -81.02,-543.13 -86.55,-678.45 83.12,19.97 174.35,183.28 236.48,67.87 22.87,-42.49 119.51,-231.02 118.15,-260.08 -236.76,-266.36 -500.6,-454.43 -842.18,-593.56 -188.07,-76.62 -459.09,-150.87 -663.76,-183.59l-1.9 2662.69z"/>
  <path class="fil4" d="M4475.35 3381.54l141.56 -20.22 0.99 2656.54 889.68 0 0 -786.43c0,-45.1 -0.09,-90.19 0.08,-135.3 0.22,-53.56 11.11,-115.96 -21.3,-124.44 -2.02,-0.53 -4.45,-1.41 -6.79,-1.89 -2.47,-0.51 -4.63,-0.92 -7.32,-1.31 -64.89,-9.48 -63.21,17.41 -182.05,-29.3 -214.51,-84.3 -243.74,-258.81 -243.82,-477.27 -0.04,-77.54 -7.3,-167.89 19.19,-229.05 48.02,-110.89 102.14,-204.44 229.31,-253.02 187.84,-71.75 213.82,34.91 212.93,-109.67 -0.78,-126.77 5.78,-463.56 -3.02,-539.18 -47.29,-5.21 -77.82,-15.54 -124.77,-16.32 -413.67,-6.87 -393.95,-6.35 -795.49,41.51 -39.16,4.66 -83.37,9.1 -109.17,25.35z"/>
  <path class="fil4" d="M705.87 3958.68c102.71,34.41 196.79,75.46 256.74,183.33 73.64,132.52 59.42,215.07 59.1,387.54 -0.15,80.81 0.84,133.99 -30.81,195.39 -95.58,185.42 -216.02,236.12 -420.91,238.06 -15.45,72.17 -5.13,905.98 -5.13,1054.85l885.4 0 1.9 -2662.69c-49.88,-10.2 -219.36,-35.26 -269.62,-24.75 -50.08,3.64 -103.94,-3.86 -157.99,-6.98 -70.76,-4.08 -419.43,-1.73 -444.04,25.77 -4.72,5.27 -9.21,464.4 -0.94,546.49 0.32,3.18 0.69,5.4 1.09,8.22l3.77 15.77c0.31,-1.12 1.33,5.24 2.35,7.73l40.23 7.48c9.52,0.53 25.44,-0.93 34.69,-0.77 39.6,0.67 32.42,-4.95 44.19,24.55z"/>
  <path class="fil4" d="M3812.45 1236.57c11.51,-95.98 -1.86,-198.09 -30.55,-268.61 -62.28,-153.15 -129.67,-257.92 -263.69,-345.65 -74.5,-48.77 -94.26,-72.08 -186.4,-115.63 -121.85,-57.59 -262.1,-64.73 -396.43,-62.02 -101.74,2.06 -265.08,53.63 -355.69,100.73 -123.1,63.97 -256.65,184.75 -320.71,296.97 -37.72,66.09 -73.24,140.48 -83.61,219.38 -5.71,43.45 -17.62,95.35 -11.03,145.58 4.74,36.15 3.96,32.26 42.93,33.77l381.68 -1.27c107.98,0 1145.87,6.7 1223.5,-3.25z"/>
  <path class="fil4" d="M2198.81 1382.1l3.62 52.67c0.63,1.8 1.68,4.05 2.4,5.77l44.53 72.66c42.16,81.41 141.29,183.86 223.32,240.57 108.66,75.13 104.15,89.54 269.23,136.49 111.27,31.65 243.26,39.66 362.64,30.11 72.96,-5.83 145.57,-33.84 212.64,-55.65 68.79,-22.36 36.05,-16.31 86.09,-46.03 114.9,-68.24 215.62,-125.41 289.1,-244.22l33.48 -52.04c1.57,-1.93 6.37,-7.04 7.85,-8.92 4.7,-5.99 9.82,-13.79 12.17,-18.8 3.6,-7.66 4.77,-14.2 9.13,-24.65 39.13,-93.84 65.97,-82.21 -227.39,-82.03 -427.08,0.25 -920.69,10.35 -1328.79,-5.94z"/>
  <path class="fil5" d="M870.25 4614.12c14.83,-78.86 16.45,-277.41 -9.04,-344.92 -32.02,-84.8 -105.69,-153.03 -188.23,-171.55 -65.89,-14.79 -291.14,-11.12 -347.51,11.49 -63.62,25.51 -120.04,74.03 -150.41,128.18 -53.57,95.57 -27.89,370.72 -12.53,410.94 29.6,77.57 105.72,153.17 190.24,170.38 62.2,12.65 307.7,12.3 354.94,-7.24 76.84,-31.79 145.67,-107.63 162.54,-197.28z"/>
  <path class="fil0" d="M5187.93 4597.21c16.55,90.93 78.14,175.49 160.78,207.6 70.99,27.59 257.37,29.87 341.97,16.75 90.37,-14.02 169.87,-76.62 202.87,-158.68 26.19,-65.16 27.17,-258.33 16.68,-342.86 -12.64,-101.95 -73.94,-169.87 -161.85,-209.18 -61.36,-27.44 -258.34,-26.23 -342.57,-15.77 -80.21,9.97 -170.53,91.03 -198.81,158.96 -23.25,55.86 -32.55,269.2 -19.08,343.18z"/>
  <path class="fil6" d="M3061.12 3311.85c-17.91,-34.91 -21.71,-172.14 -0.79,-205.15 1.91,-3.01 97.72,-87.97 116.01,-103.87 37.16,-32.29 99.8,-66.42 80.79,-137.92 -15.79,-59.41 -101.96,-50.61 -169.25,-50.39 -73.27,0.25 -146.63,0.21 -219.89,-0.07 -70.18,-0.26 -143.73,-4.14 -149.81,66.67 -5.25,61.22 57.21,94.3 93.2,124.17 46.28,38.42 63.94,66.99 121.5,95.15l-1.87 207.82c-66.06,55.85 -165.29,28.73 -243.26,6.93 -155.62,-43.51 -116.66,-58.49 -200.27,-100.84 -33.49,13.19 -83.81,55.02 -79.11,80.58 40.87,64.89 179.51,122.01 258.56,143.8 251.48,69.35 270.79,-2.03 315.16,-10.92 41.41,-8.31 15.8,33.53 164.97,33.7 184.86,0.21 420.83,-118.83 427.56,-166.59 -7.69,-31.33 -8.08,-25.9 -31.74,-49.1 -61.2,-60.02 -47.09,-21.08 -137.94,27.35 -32.65,17.4 -61.81,30.39 -104.37,40.68 -61.55,14.88 -193.96,55.96 -239.44,-2.02z"/>
  <path class="fil6" d="M2256.72 2251.46c-212.17,72.21 -99.12,402.38 118.59,323.11 76.09,-27.71 137.73,-118.27 104.92,-220.01 -26.76,-82.94 -127.02,-135.95 -223.52,-103.1z"/>
  <path class="fil6" d="M3614.55 2246.91c-217.18,75.77 -117.04,399.89 112.66,326.53 193.69,-61.87 105.85,-402.76 -112.66,-326.53z"/>
  <path class="fil7" d="M705.87 3958.68c-11.77,-29.5 -4.58,-23.88 -44.19,-24.55 -9.25,-0.16 -25.17,1.3 -34.69,0.77l-40.23 -7.48c-1.02,-2.49 -2.04,-8.85 -2.35,-7.73l-3.77 -15.77c-0.4,-2.82 -0.77,-5.04 -1.09,-8.22 -8.27,-82.09 -3.79,-541.22 0.94,-546.49 24.61,-27.5 373.28,-29.85 444.04,-25.77 54.04,3.13 107.91,10.62 157.99,6.98 -18.44,-28.69 -99.69,-17.36 -166.45,-20.31 -92.1,-4.07 -413.59,-10.21 -462.51,27.12l3.33 613.31 148.97 8.14z"/>
  <path class="fil8" d="M1904.04 5257.35c30.79,-10.09 71.23,-37.49 91.43,-59.78 26.17,-53.23 -94.77,-285.23 -102.3,-358.47 371.24,16.59 399.77,77.79 427.15,-172 -13.38,7.16 -12.9,-2.95 -25.26,38.05l-18.94 111.91c16.27,-5.49 1.96,-8.39 -5.74,-14.73 -11.51,41.28 -30.94,37.08 -78.63,37.13 -98.62,0.09 -264.91,-24.67 -316.46,-8.34 -0.98,39.92 34.96,117.91 54.03,170.74 29.39,81.44 76.69,160.62 33.37,203.58 -26.25,26.02 -34.1,10.14 -58.64,51.9z"/>
 </g>
</svg>
